{"accessors":[{"bufferView":0,"byteOffset":0,"componentType":5126,"count":842,"max":[0.49926671385765076,0.4965316653251648,0.5],"min":[-0.49926671385765076,-0.4965316653251648,-0.5],"type":"VEC3"},{"bufferView":1,"byteOffset":0,"componentType":5126,"count":842,"type":"VEC3"},{"bufferView":2,"byteOffset":0,"componentType":5125,"count":5040,"type":"SCALAR"},{"bufferView":3,"byteOffset":0,"componentType":5126,"count":2,"max":[0.2,0.1,1.0],"min":[0.0,0.0,0.9],"type":"VEC3"},{"bufferView":4,"byteOffset":0,"componentType":5125,"count":2,"type":"SCALAR"}],"asset":{"generator":"VTK","version":"2.0"},"bufferViews":[{"buffer":0,"byteLength":10104,"byteOffset":0,"target":34962},{"buffer":1,"byteLength":10104,"byteOffset":0,"target":34962},{"buffer":2,"byteLength":20160,"byteOffset":0,"target":34963},{"buffer":3,"byteLength":24,"byteOffset":0,"target":34962},{"buffer":4,"byteLength":8,"byteOffset":0,"target":34963}],"buffers":[{"byteLength":10104,"uri":"data:application/octet-stream;base64,"},{"byteLength":10104,"uri":"data:application/octet-stream;base64,"},{"byteLength":20160,"uri":"data:application/octet-stream;base64,"},{"byteLength":24,"uri":"data:application/octet-stream;base64,"},{"byteLength":8,"uri":"data:application/octet-stream;base64,"}],"cameras":[{"perspective":{"aspectRatio":1.3333333333333333,"yfov":0.5235987755982988,"zfar":1000.01,"znear":0.01},"type":"perspective"}],"materials":[{"pbrMetallicRoughness":{"baseColorFactor":[0.8274509803921568,0.8274509803921568,0.8274509803921568,1.0],"metallicFactor":0.0,"roughnessFactor":1.0}},{"pbrMetallicRoughness":{"baseColorFactor":[1.0,0.0,0.0,1.0],"metallicFactor":0.0,"roughnessFactor":1.0}}],"meshes":[{"name":"mesh0","primitives":[{"attributes":{"NORMAL":1,"POSITION":0},"indices":2,"material":0,"mode":4}]},{"name":"mesh1","primitives":[{"attributes":{"POSITION":3},"indices":4,"material":1,"mode":0}]}],"nodes":[{"matrix":[0.0,0.0,1.0000000000000004,0.0,1.0000000000000004,0.0,0.0,0.0,0.0,1.0000000000000004,0.0,0.0,0.0,0.0,0.0,1.0],"mesh":0,"name":"mesh0"},{"matrix":[0.0,0.0,1.0000000000000004,0.0,1.0000000000000004,0.0,0.0,0.0,0.0,1.0000000000000004,0.0,0.0,0.0,0.0,0.0,1.0],"mesh":1,"name":"mesh1"},{"camera":0,"matrix":[1.0,-0.0,0.0,-0.0,-0.0,1.0,-0.0,0.0,0.0,-0.0,1.0,-0.0,-0.0,0.0,1.0,1.0],"name":"Camera Node"},{"children":[0,1,2],"name":"Renderer Node"}],"scene":0,"scenes":[{"name":"Layer 0","nodes":[3]}]}